HIERARCHY
ROOT Hips
{
	OFFSET 0.000000 71.427986 0.000000
	CHANNELS 6 Xposition Yposition Zposition Xrotation Yrotation Zrotation
	JOINT Pelvis
	{
		OFFSET 0.000000 0.000000 0.000000
		CHANNELS 3 Xrotation Yrotation Zrotation
		JOINT LeftUpLeg
		{
			OFFSET 6.797100 -2.508499 -1.318700
			CHANNELS 3 Xrotation Yrotation Zrotation
			JOINT LeftLeg
			{
				OFFSET 0.069008 -29.241863 0.690200
				CHANNELS 3 Xrotation Yrotation Zrotation
				JOINT LeftFoot
				{
					OFFSET -0.069008 -29.568123 -0.266800
					CHANNELS 3 Xrotation Yrotation Zrotation
					JOINT LeftToeBase
					{
						OFFSET 3.145500 -8.631000 16.059900
						CHANNELS 3 Xrotation Yrotation Zrotation
						End Site
						{
							OFFSET 0.000000 18.501587 0.000000
						}
					}
				}
			}
			JOINT Left_ShortSleeve
			{
				OFFSET 0.265923 -10.480953 1.153800
				CHANNELS 3 Xrotation Yrotation Zrotation
				End Site
				{
					OFFSET 1.725763 19.823879 0.000000
				}
			}
		}
		JOINT RightUpLeg
		{
			OFFSET -6.797100 -2.508499 -1.318700
			CHANNELS 3 Xrotation Yrotation Zrotation
			JOINT RightLeg
			{
				OFFSET -0.082453 -29.241932 0.688000
				CHANNELS 3 Xrotation Yrotation Zrotation
				JOINT RightFoot
				{
					OFFSET 0.082453 -29.568058 -0.264600
					CHANNELS 3 Xrotation Yrotation Zrotation
					JOINT RightToeBase
					{
						OFFSET -3.115300 -8.682800 16.113400
						CHANNELS 3 Xrotation Yrotation Zrotation
						End Site
						{
							OFFSET 0.000000 18.567114 0.000000
						}
					}
				}
			}
			JOINT Right_ShortSleeve
			{
				OFFSET -0.265923 -10.480953 1.153800
				CHANNELS 3 Xrotation Yrotation Zrotation
				End Site
				{
					OFFSET -1.725766 19.823910 0.000000
				}
			}
		}
	}
	JOINT Spine
	{
		OFFSET 0.000000 13.368103 0.470500
		CHANNELS 3 Xrotation Yrotation Zrotation
		JOINT Spine1
		{
			OFFSET 0.147000 13.837402 0.538800
			CHANNELS 3 Xrotation Yrotation Zrotation
			JOINT Spine2
			{
				OFFSET 0.168000 16.242897 -1.435500
				CHANNELS 3 Xrotation Yrotation Zrotation
				JOINT Neck
				{
					OFFSET 0.217200 18.631500 -1.679100
					CHANNELS 3 Xrotation Yrotation Zrotation
					JOINT Head
					{
						OFFSET 0.000000 6.599396 1.385900
						CHANNELS 3 Xrotation Yrotation Zrotation
						JOINT Hat
						{
							OFFSET -0.532200 27.220596 -10.096100
							CHANNELS 3 Xrotation Yrotation Zrotation
							End Site
							{
								OFFSET 0.000000 22.029861 0.000000
							}
						}
						JOINT HairD
						{
							OFFSET -10.777400 17.437393 -1.325900
							CHANNELS 3 Xrotation Yrotation Zrotation
							JOINT HairD1
							{
								OFFSET -3.290299 -11.051193 1.062200
								CHANNELS 3 Xrotation Yrotation Zrotation
								End Site
								{
									OFFSET 0.000000 11.579437 0.000000
								}
							}
						}
						JOINT HairB
						{
							OFFSET -10.777400 17.437393 1.467900
							CHANNELS 3 Xrotation Yrotation Zrotation
							JOINT HairB1
							{
								OFFSET -1.561200 -12.956299 3.590200
								CHANNELS 3 Xrotation Yrotation Zrotation
								End Site
								{
									OFFSET 0.000000 13.534866 0.000000
								}
							}
						}
						JOINT HairA
						{
							OFFSET 9.713100 17.437393 1.467900
							CHANNELS 3 Xrotation Yrotation Zrotation
							JOINT HairA1
							{
								OFFSET 1.561200 -12.956299 3.590200
								CHANNELS 3 Xrotation Yrotation Zrotation
								End Site
								{
									OFFSET 0.000000 13.534866 0.000000
								}
							}
						}
						JOINT HairC
						{
							OFFSET 9.713100 17.437393 -1.325900
							CHANNELS 3 Xrotation Yrotation Zrotation
							JOINT HairC1
							{
								OFFSET 3.290300 -11.051193 1.062200
								CHANNELS 3 Xrotation Yrotation Zrotation
								End Site
								{
									OFFSET 0.000000 11.579437 0.000000
								}
							}
						}
					}
				}
				JOINT LeftShoulder
				{
					OFFSET 5.101800 15.108002 -2.763700
					CHANNELS 3 Xrotation Yrotation Zrotation
					JOINT LeftArm
					{
						OFFSET 9.825497 2.506317 -1.597400
						CHANNELS 3 Xrotation Yrotation Zrotation
						JOINT LeftForeArm
						{
							OFFSET 21.966244 0.000000 0.000000
							CHANNELS 3 Xrotation Yrotation Zrotation
							JOINT LeftHand
							{
								OFFSET 33.879036 0.000000 0.000000
								CHANNELS 3 Xrotation Yrotation Zrotation
								JOINT LeftHandThumb1
								{
									OFFSET 6.715286 -2.359680 3.363841
									CHANNELS 3 Xrotation Yrotation Zrotation
									JOINT LeftHandThumb2
									{
										OFFSET 2.507072 -1.447464 1.447461
										CHANNELS 3 Xrotation Yrotation Zrotation
										JOINT LeftHandThumb3
										{
											OFFSET 2.898338 -1.673355 1.673357
											CHANNELS 3 Xrotation Yrotation Zrotation
											End Site
											{
												OFFSET -0.295959 3.727692 -0.131651
											}
										}
									}
								}
								JOINT LeftHandIndex1
								{
									OFFSET 14.190811 -0.254547 3.840278
									CHANNELS 3 Xrotation Yrotation Zrotation
									JOINT LeftHandIndex2
									{
										OFFSET 3.551727 0.000000 -0.000000
										CHANNELS 3 Xrotation Yrotation Zrotation
										JOINT LeftHandIndex3
										{
											OFFSET 2.894196 0.000000 0.000000
											CHANNELS 3 Xrotation Yrotation Zrotation
											End Site
											{
												OFFSET -1.000603 2.690872 0.366626
											}
										}
									}
								}
								JOINT LeftHandMiddle1
								{
									OFFSET 13.776489 0.000000 0.000000
									CHANNELS 3 Xrotation Yrotation Zrotation
									JOINT LeftHandMiddle2
									{
										OFFSET 3.438232 0.000000 0.000000
										CHANNELS 3 Xrotation Yrotation Zrotation
										JOINT LeftHandMiddle3
										{
											OFFSET 3.691551 0.000000 0.000000
											CHANNELS 3 Xrotation Yrotation Zrotation
											End Site
											{
												OFFSET -1.082298 3.499527 0.457670
											}
										}
									}
								}
								JOINT LeftHandRing1
								{
									OFFSET 13.966164 -0.268127 -3.067488
									CHANNELS 3 Xrotation Yrotation Zrotation
									JOINT LeftHandRing2
									{
										OFFSET 3.162567 0.000000 0.000000
										CHANNELS 3 Xrotation Yrotation Zrotation
										JOINT LeftHandRing3
										{
											OFFSET 3.324348 0.000000 0.000000
											CHANNELS 3 Xrotation Yrotation Zrotation
											End Site
											{
												OFFSET -0.861900 3.184998 0.405154
											}
										}
									}
								}
								JOINT LeftHandPinky1
								{
									OFFSET 13.131393 -0.168503 -5.746925
									CHANNELS 3 Xrotation Yrotation Zrotation
									JOINT LeftHandPinky2
									{
										OFFSET 2.849182 0.000000 0.000000
										CHANNELS 3 Xrotation Yrotation Zrotation
										JOINT LeftHandPinky3
										{
											OFFSET 2.805038 0.000000 0.000000
											CHANNELS 3 Xrotation Yrotation Zrotation
											End Site
											{
												OFFSET -0.882500 2.642609 0.325652
											}
										}
									}
								}
							}
							JOINT Left_Sleeve
							{
								OFFSET 6.592125 -0.646545 0.805568
								CHANNELS 3 Xrotation Yrotation Zrotation
								End Site
								{
									OFFSET -0.000179 20.275787 -0.000000
								}
							}
						}
					}
				}
				JOINT RightShoulder
				{
					OFFSET -5.731700 15.108002 -2.763700
					CHANNELS 3 Xrotation Yrotation Zrotation
					JOINT RightArm
					{
						OFFSET -9.825497 2.506317 -1.597400
						CHANNELS 3 Xrotation Yrotation Zrotation
						JOINT RightForeArm
						{
							OFFSET -21.966242 0.000000 0.000000
							CHANNELS 3 Xrotation Yrotation Zrotation
							JOINT RightHand
							{
								OFFSET -33.879032 0.000000 0.000000
								CHANNELS 3 Xrotation Yrotation Zrotation
								JOINT RightHandThumb1
								{
									OFFSET -6.715286 -2.359680 3.363841
									CHANNELS 3 Xrotation Yrotation Zrotation
									JOINT RightHandThumb2
									{
										OFFSET -2.507072 -1.447464 1.447461
										CHANNELS 3 Xrotation Yrotation Zrotation
										JOINT RightHandThumb3
										{
											OFFSET -2.898338 -1.673355 1.673357
											CHANNELS 3 Xrotation Yrotation Zrotation
											End Site
											{
												OFFSET 0.295959 3.727692 -0.131651
											}
										}
									}
								}
								JOINT RightHandIndex1
								{
									OFFSET -14.190811 -0.254547 3.840278
									CHANNELS 3 Xrotation Yrotation Zrotation
									JOINT RightHandIndex2
									{
										OFFSET -3.551727 0.000000 -0.000000
										CHANNELS 3 Xrotation Yrotation Zrotation
										JOINT RightHandIndex3
										{
											OFFSET -2.894196 0.000000 0.000000
											CHANNELS 3 Xrotation Yrotation Zrotation
											End Site
											{
												OFFSET 1.000603 2.690872 0.366626
											}
										}
									}
								}
								JOINT RightHandMiddle1
								{
									OFFSET -13.776489 0.000000 0.000000
									CHANNELS 3 Xrotation Yrotation Zrotation
									JOINT RightHandMiddle2
									{
										OFFSET -3.438232 0.000000 0.000000
										CHANNELS 3 Xrotation Yrotation Zrotation
										JOINT RightHandMiddle3
										{
											OFFSET -3.691551 0.000000 0.000000
											CHANNELS 3 Xrotation Yrotation Zrotation
											End Site
											{
												OFFSET 1.082298 3.499527 0.457670
											}
										}
									}
								}
								JOINT RightHandRing1
								{
									OFFSET -13.966164 -0.268127 -3.067488
									CHANNELS 3 Xrotation Yrotation Zrotation
									JOINT RightHandRing2
									{
										OFFSET -3.162567 0.000000 0.000000
										CHANNELS 3 Xrotation Yrotation Zrotation
										JOINT RightHandRing3
										{
											OFFSET -3.324348 0.000000 0.000000
											CHANNELS 3 Xrotation Yrotation Zrotation
											End Site
											{
												OFFSET 0.861900 3.184998 0.405154
											}
										}
									}
								}
								JOINT RightHandPinky1
								{
									OFFSET -13.131393 -0.168503 -5.746925
									CHANNELS 3 Xrotation Yrotation Zrotation
									JOINT RightHandPinky2
									{
										OFFSET -2.849182 0.000000 0.000000
										CHANNELS 3 Xrotation Yrotation Zrotation
										JOINT RightHandPinky3
										{
											OFFSET -2.805038 0.000000 0.000000
											CHANNELS 3 Xrotation Yrotation Zrotation
											End Site
											{
												OFFSET 0.882500 2.642609 0.325652
											}
										}
									}
								}
							}
							JOINT Right_Sleeve
							{
								OFFSET -6.592125 -0.646545 0.805568
								CHANNELS 3 Xrotation Yrotation Zrotation
								End Site
								{
									OFFSET 0.000179 20.275787 -0.000000
								}
							}
						}
					}
				}
				JOINT Bind_Right_JacketString
				{
					OFFSET -3.534800 11.969597 7.200700
					CHANNELS 3 Xrotation Yrotation Zrotation
					JOINT Bind_Right_JacketString1
					{
						OFFSET -0.319900 -6.102600 2.794100
						CHANNELS 3 Xrotation Yrotation Zrotation
						End Site
						{
							OFFSET 0.000000 6.719452 0.000000
						}
					}
				}
				JOINT Bind_Left_JacketString
				{
					OFFSET 2.904800 11.969597 7.200700
					CHANNELS 3 Xrotation Yrotation Zrotation
					JOINT Bind_Left_JacketString1
					{
						OFFSET 0.364800 -5.904503 3.186800
						CHANNELS 3 Xrotation Yrotation Zrotation
						End Site
						{
							OFFSET 0.000000 6.719513 0.000000
						}
					}
				}
				JOINT HairE
				{
					OFFSET 5.915200 17.612701 -11.592200
					CHANNELS 3 Xrotation Yrotation Zrotation
					JOINT HairE1
					{
						OFFSET 0.289200 -7.171898 -1.284500
						CHANNELS 3 Xrotation Yrotation Zrotation
						End Site
						{
							OFFSET 0.000000 7.291756 0.000000
						}
					}
				}
				JOINT HairF
				{
					OFFSET -0.864800 17.612701 -11.592200
					CHANNELS 3 Xrotation Yrotation Zrotation
					JOINT HairF1
					{
						OFFSET 0.000000 -14.087097 -2.127501
						CHANNELS 3 Xrotation Yrotation Zrotation
						End Site
						{
							OFFSET 0.000000 14.246841 0.000000
						}
					}
				}
				JOINT HairG
				{
					OFFSET -8.087700 17.612701 -11.592200
					CHANNELS 3 Xrotation Yrotation Zrotation
					JOINT HairG1
					{
						OFFSET -0.293600 -6.081398 -0.910100
						CHANNELS 3 Xrotation Yrotation Zrotation
						End Site
						{
							OFFSET 0.000000 6.156120 0.000000
						}
					}
				}
			}
		}
	}
	JOINT Pouch
	{
		OFFSET 0.000000 4.394501 10.847300
		CHANNELS 3 Xrotation Yrotation Zrotation
		End Site
		{
			OFFSET 0.000000 21.880577 0.000000
		}
	}
	JOINT Bag
	{
		OFFSET -13.229000 4.813004 -0.593300
		CHANNELS 3 Xrotation Yrotation Zrotation
		End Site
		{
			OFFSET 0.000000 21.880577 0.000000
		}
	}
	JOINT OccupyGuyFacialAnim_Joint
	{
		OFFSET 1.000000 -70.206398 -1.655000
		CHANNELS 3 Xrotation Yrotation Zrotation
		End Site
		{
			OFFSET 0.000000 21.880577 0.000000
		}
	}
}
MOTION
Frames: 4
Frame Time: 0.033333
4.191943 66.818184 4.510639 9.100863 -34.337871 8.749250 -0.000001 -0.000002 -0.000000 -39.066220 42.698303 24.061899 39.302811 19.473264 -0.385842 -13.583812 -11.190188 -7.907530 -0.000000 0.000001 -0.000000 -0.000000 -0.000000 -0.000000 -33.593503 1.157794 -23.912214 41.088601 12.714830 2.871182 -17.228114 0.695480 12.277928 0.000000 0.000001 0.000000 -0.000000 0.000000 -0.000000 5.218962 0.288322 0.063778 10.435954 0.656346 0.326156 10.435958 0.656350 0.326151 -0.848342 25.479187 -5.484568 -16.060280 17.662377 2.992069 0.000000 -0.000001 0.000001 0.000000 -0.000001 0.000001 0.000000 -0.000001 0.000000 0.000000 -0.000001 -0.000001 0.000000 -0.000000 -0.000001 0.000000 -0.000001 -0.000001 0.000000 -0.000000 -0.000001 0.000000 -0.000001 0.000001 0.000000 -0.000001 0.000001 -19.939680 9.532600 1.333688 0.697709 -7.740676 -69.455074 -52.930530 -77.570445 -61.796075 -106.201484 -32.712788 9.481452 3.579790 3.979403 -3.680774 1.214273 4.309399 1.959777 -0.000001 0.000002 0.000002 8.259533 7.214123 -35.194824 -15.326943 -5.748276 -84.097954 0.000003 -0.000000 0.000002 -0.187391 -1.711024 -70.326729 -6.512156 -6.504269 -63.003311 0.000000 0.000000 -0.000001 -5.609577 5.580717 -80.939326 0.704657 -3.620081 -59.290475 -0.000000 -0.000000 -0.000000 -19.414195 4.235263 -96.150178 2.933703 -6.943526 -51.857965 -0.000000 -0.000000 -0.000001 0.000000 0.000004 -0.000001 14.163487 6.675215 -1.448533 -3.216239 44.760774 41.508446 -4.398758 112.526240 1.924862 -26.488189 -15.583399 9.413791 19.576729 -9.839792 18.236897 13.641114 -0.590603 -20.285474 -0.000001 -0.000001 0.000002 2.334800 -2.029292 -0.335840 -0.847625 -0.234715 20.348725 -0.000001 0.000000 0.000000 5.994095 6.106786 47.073227 -8.066791 -1.071916 118.700068 0.000001 0.000001 -0.000001 -6.849380 -5.162082 53.079910 -4.949941 9.537379 103.624147 -0.000000 -0.000001 0.000002 -11.691303 0.388073 67.948156 -4.086025 15.655973 86.235544 -0.000000 0.000004 -0.000002 -0.000000 0.000001 0.000001 -0.000000 -0.000000 -0.000000 0.000002 -0.000001 0.000002 -0.000000 -0.000000 -0.000001 -0.000000 -0.000000 -0.000001 -0.000000 -0.000000 -0.000000 0.000002 -0.000001 0.000002 -0.000000 -0.000000 -0.000001 -0.000000 -0.000000 -0.000001 -0.000000 -0.000000 -0.000000 0.000002 -0.000001 0.000002 -0.000001 -0.000002 -0.000000 -0.000001 -0.000002 -0.000000 -0.000001 -0.000002 -0.000000 
4.002417 67.906494 5.042949 6.536792 -36.108659 7.602112 -0.000000 -0.000000 -0.000000 -31.709532 44.389461 20.930999 33.198042 19.418547 -0.146329 -11.242863 -10.244179 -7.805351 0.000000 0.000001 0.000000 -0.000000 0.000002 0.000000 -23.875836 -0.120924 -22.457309 40.756978 13.014104 3.043442 -24.278205 -0.724127 9.696971 -0.000000 -0.000000 -0.000000 -0.000002 0.000002 0.000002 4.634219 0.334165 -0.604436 9.269553 0.674776 -0.936152 9.269555 0.674790 -0.936155 -0.218128 25.728570 -6.465160 -15.679396 16.264986 3.618676 0.000002 -0.000001 0.000001 0.000002 -0.000001 0.000001 0.000002 -0.000001 0.000001 0.000002 -0.000001 0.000001 0.000001 0.000001 0.000001 0.000002 -0.000001 0.000001 0.000001 0.000001 0.000001 0.000002 -0.000001 0.000001 0.000002 -0.000001 0.000001 -19.605069 10.159199 0.013894 -0.742566 -8.998504 -71.311833 -41.779816 -76.575669 -49.508486 -103.219519 -29.324458 13.331831 3.583204 4.027792 -3.894523 1.217206 4.308907 1.954432 -0.000001 -0.000000 -0.000001 8.202014 7.089893 -35.059993 -15.299579 -5.826253 -83.836535 0.000002 0.000000 -0.000002 -0.202003 -1.696908 -69.770280 -6.487105 -6.510967 -62.797408 -0.000000 0.000000 -0.000001 -5.592706 5.506495 -80.373609 0.708753 -3.612613 -59.214093 -0.000001 0.000000 -0.000000 -19.188337 3.996517 -95.401057 2.911439 -6.992781 -52.155164 -0.000001 0.000001 0.000001 0.000001 0.000001 -0.000004 14.310728 4.814453 -1.532538 -2.099356 45.658783 41.553218 -4.204051 112.512190 1.151903 -28.870168 -17.370815 7.693400 19.249268 -9.447227 18.113607 13.481835 -0.241921 -20.300647 0.000001 -0.000001 0.000000 2.303263 -1.945751 0.051349 -0.917784 -0.221994 20.497560 0.000000 0.000000 0.000002 5.814108 6.087108 47.207334 -8.168220 -1.073282 118.098547 0.000000 -0.000001 -0.000003 -6.988799 -5.195535 53.217050 -4.926724 9.484148 103.106466 -0.000001 -0.000002 -0.000001 -11.757594 0.365906 68.095231 -4.027517 15.537441 85.741946 0.000001 0.000000 -0.000001 0.000000 0.000000 0.000000 -0.000001 0.000004 -0.000002 -0.000000 0.000001 -0.000000 -0.000001 0.000004 -0.000001 -0.000001 0.000004 -0.000001 -0.000001 0.000004 -0.000002 -0.000000 0.000001 0.000000 -0.000001 0.000004 -0.000001 -0.000001 0.000004 -0.000001 -0.000001 0.000004 -0.000002 -0.000000 0.000001 0.000000 -0.000000 -0.000000 -0.000000 -0.000000 -0.000000 -0.000000 -0.000000 -0.000000 -0.000000 
3.901715 68.645172 5.501589 4.032863 -36.819262 5.923824 -0.000000 -0.000001 0.000000 -26.202071 45.485310 18.964316 28.767015 18.243591 -0.032814 -9.591433 -9.299764 -7.412696 -0.000000 -0.000000 -0.000000 0.000001 -0.000000 -0.000000 -13.141582 -0.828909 -19.415892 35.360460 10.292206 2.652367 -26.974705 -2.090979 8.627692 -0.000000 -0.000000 -0.000000 -0.000000 -0.000003 -0.000001 4.092821 0.456103 -0.939244 8.189796 0.869107 -1.626405 8.189785 0.869114 -1.626403 0.000579 25.848151 -6.611756 -14.784303 15.210386 3.966655 -0.000000 -0.000001 -0.000000 -0.000000 -0.000001 -0.000000 -0.000000 -0.000001 -0.000000 -0.000000 -0.000001 -0.000001 -0.000000 -0.000001 0.000000 -0.000000 -0.000001 -0.000001 -0.000000 -0.000001 0.000000 -0.000000 -0.000001 -0.000000 -0.000000 -0.000001 -0.000000 -19.179750 10.495560 -1.752854 -2.101483 -10.422066 -73.166755 -31.511098 -74.790285 -38.432887 -100.992960 -26.977171 15.907116 3.586250 4.070636 -4.098800 1.220695 4.308275 1.948077 0.000001 0.000001 -0.000003 8.134266 6.941363 -34.898852 -15.266031 -5.919185 -83.524307 0.000001 0.000001 -0.000000 -0.218816 -1.680726 -69.105866 -6.457131 -6.518875 -62.551596 0.000000 0.000001 0.000001 -5.570970 5.418439 -79.698404 0.713671 -3.603706 -59.122910 -0.000000 0.000001 -0.000002 -18.916663 3.716954 -94.504143 2.884366 -7.051314 -52.510054 0.000001 0.000001 -0.000000 0.000001 0.000000 -0.000002 14.431295 3.463443 -1.407946 -0.724171 44.941490 41.015091 -3.436930 112.603359 -0.023085 -30.879350 -18.926089 7.023971 18.861935 -8.974971 17.974167 13.291844 0.174440 -20.317569 -0.000003 -0.000002 -0.000002 2.264547 -1.846891 0.513734 -1.001610 -0.207266 20.675365 -0.000000 -0.000001 0.000002 5.599393 6.062464 47.367731 -8.288865 -1.072082 117.380202 0.000000 -0.000000 -0.000001 -7.155053 -5.236394 53.380865 -4.900106 9.421040 102.488553 -0.000001 0.000000 -0.000003 -11.836738 0.339169 68.270732 -3.960615 15.395986 85.153526 0.000004 0.000004 -0.000004 0.000000 -0.000000 -0.000001 -0.000000 0.000001 -0.000000 0.000000 0.000002 -0.000001 -0.000000 0.000001 -0.000000 -0.000000 0.000001 -0.000000 -0.000000 0.000001 -0.000000 0.000000 0.000002 -0.000001 -0.000000 0.000001 -0.000000 -0.000000 0.000001 -0.000000 -0.000000 0.000001 -0.000000 0.000000 0.000002 -0.000001 -0.000000 -0.000001 0.000000 -0.000000 -0.000001 0.000000 -0.000000 -0.000001 0.000000 
3.958975 69.016914 5.886781 2.648167 -36.832881 4.315299 0.000000 -0.000001 0.000000 -24.166203 45.720132 18.893155 27.041655 16.724751 -0.041798 -9.130671 -8.244645 -7.072170 -0.000000 -0.000000 -0.000000 -0.000001 -0.000002 -0.000000 -4.829441 -0.883699 -16.863228 25.486629 6.891736 1.949036 -23.616936 -3.643976 9.632253 0.000000 -0.000001 -0.000000 0.000000 -0.000003 -0.000000 3.456149 0.600571 -1.031723 6.920218 1.150420 -1.906968 6.920223 1.150398 -1.906961 -0.084619 25.937560 -6.270743 -13.627049 14.586081 4.162269 -0.000000 0.000000 0.000000 -0.000000 0.000000 0.000000 -0.000000 0.000000 0.000000 -0.000000 0.000000 0.000000 -0.000000 0.000000 -0.000000 -0.000000 0.000000 0.000000 -0.000000 0.000000 -0.000000 -0.000000 0.000000 0.000000 -0.000000 0.000000 0.000000 -18.888275 10.565485 -3.005017 -2.406970 -11.719889 -74.858586 -25.420893 -73.327504 -32.034246 -99.146534 -25.948135 17.585985 3.588906 4.108089 -4.291562 1.224589 4.307589 1.940954 -0.000001 -0.000001 -0.000004 8.059813 6.775307 -34.718920 -15.227596 -6.022663 -83.175756 0.000001 0.000002 0.000002 -0.236897 -1.663529 -68.364361 -6.423567 -6.527549 -62.277248 -0.000000 0.000002 0.000001 -5.544621 5.320638 -78.945171 0.719107 -3.593739 -59.021181 0.000001 0.000003 -0.000002 -18.609644 3.411988 -93.500802 2.853484 -7.116310 -52.906181 -0.000001 -0.000000 0.000001 -0.000000 -0.000000 -0.000003 14.554841 2.544043 -0.959008 1.502481 43.029522 39.922606 -3.043885 113.094108 -0.593353 -32.523199 -19.505673 7.086090 18.433243 -8.444671 17.827291 13.080165 0.639183 -20.334950 -0.000000 -0.000001 0.000000 2.220019 -1.737602 1.029860 -1.095191 -0.191421 20.873866 -0.000000 0.000000 -0.000001 5.360072 6.033591 47.547109 -8.423342 -1.067154 116.578461 0.000001 0.000001 0.000001 -7.340310 -5.283141 53.563689 -4.871915 9.351223 101.799311 -0.000001 -0.000001 -0.000000 -11.924951 0.308994 68.466506 -3.889596 15.238099 84.497964 0.000002 -0.000001 -0.000001 -0.000000 -0.000000 0.000001 -0.000001 -0.000001 -0.000000 0.000001 0.000000 -0.000002 -0.000001 -0.000001 -0.000000 -0.000001 -0.000001 -0.000000 -0.000001 -0.000001 -0.000000 0.000001 0.000000 -0.000001 -0.000001 -0.000001 -0.000000 -0.000001 -0.000001 -0.000000 -0.000001 -0.000001 -0.000000 0.000001 0.000000 -0.000001 0.000000 -0.000001 0.000000 0.000000 -0.000001 0.000000 0.000000 -0.000001 0.000000 
